<mxfile host="app.diagrams.net" modified="2022-11-05T21:48:19.598Z" agent="5.0 (Windows NT 10.0; Win64; x64) AppleWebKit/537.36 (KHTML, like Gecko) Chrome/107.0.0.0 Safari/537.36" etag="CYecPl_In5QT1k1h_pBr" version="20.5.2" type="github" pages="3">
  <diagram id="M3k7GN3wGjzkZ97uffGP" name="Сторінка-1">
    <mxGraphModel dx="1434" dy="1570" grid="1" gridSize="10" guides="1" tooltips="1" connect="1" arrows="1" fold="1" page="1" pageScale="1" pageWidth="827" pageHeight="1169" math="0" shadow="0">
      <root>
        <mxCell id="0" />
        <mxCell id="1" parent="0" />
        <mxCell id="TcWmYvAn-RjA2z700y7h-1" value="&lt;font style=&quot;font-size: 36px;&quot;&gt;Ball game&lt;/font&gt;" style="text;html=1;strokeColor=none;fillColor=none;align=center;verticalAlign=middle;whiteSpace=wrap;rounded=0;" parent="1" vertex="1">
          <mxGeometry x="277" width="274" height="90" as="geometry" />
        </mxCell>
        <mxCell id="TcWmYvAn-RjA2z700y7h-2" value="&lt;font style=&quot;font-size: 18px;&quot;&gt;Дизайн документ&lt;/font&gt;" style="text;html=1;strokeColor=none;fillColor=none;align=center;verticalAlign=middle;whiteSpace=wrap;rounded=0;" parent="1" vertex="1">
          <mxGeometry x="277" y="50" width="274" height="90" as="geometry" />
        </mxCell>
        <mxCell id="TcWmYvAn-RjA2z700y7h-3" value="&lt;h1 style=&quot;font-size: 31px;&quot;&gt;&lt;span style=&quot;background-color: initial;&quot;&gt;&amp;nbsp; &amp;nbsp; &amp;nbsp; &amp;nbsp; &amp;nbsp; &amp;nbsp; &amp;nbsp; &amp;nbsp; &amp;nbsp; &amp;nbsp; &amp;nbsp; &amp;nbsp; &amp;nbsp; &amp;nbsp; &amp;nbsp; &amp;nbsp; &amp;nbsp; &amp;nbsp;&amp;nbsp;&lt;/span&gt;Опис&lt;/h1&gt;&lt;div style=&quot;&quot;&gt;&lt;font style=&quot;font-size: 21px;&quot;&gt;Гра від 3 персони з можливістю керувати як м&#39;ячиком так і камерою.&lt;/font&gt;&lt;/div&gt;&lt;div style=&quot;&quot;&gt;&lt;font style=&quot;font-size: 21px;&quot;&gt;&lt;br&gt;&lt;/font&gt;&lt;/div&gt;&lt;span style=&quot;font-size: 21px;&quot;&gt;М&#39;ячиком керуємо за допомогою джойстика а камерою за допомогою свайпа.&lt;br&gt;Гра буде в мультяшному стилі з яскравими кольорами 3д модельки будуть виконані у стилі lovepoly.&lt;br&gt;По сюжету ми будем грати за місяць який впав на землю і хоче вернутись на орбіту.&lt;br&gt;Мотивація місяця дойти до кінця всіх рівнів і знайти ракету.&lt;br&gt;Окрім місяця будуть такі персонажі: низько полігональні тваринки які будуть допомагати дойти до кінця. В місцевих жителів можна брати завдання після ких вони будуть давати місяцу новий шлях чи пердмет.&lt;br&gt;Будуть також комети які перекатуються і наносять урон. Комети вороги місяця коли вони доторкаються до місяця, місяць розсипається.&lt;br&gt;Комети знищити неможливо можна тільки заманити в пастку і вони сиділи там.&lt;br&gt;Комети зустрічаються походу рівня якщо місяць підїде близько до комети вона почне його переслідувати поки не знищить.&lt;br&gt;В грі будуть такі предмети: потрібні щоб відкрити якусь щастину локації, локація може бути закрита поки місяць не збере монети.&lt;br&gt;Запчастини для ракети 3д модель шестерна, яка потрібна щоб відремонтувати ракету.&lt;br&gt;&lt;/span&gt;" style="text;html=1;strokeColor=none;fillColor=none;spacing=5;spacingTop=-20;whiteSpace=wrap;overflow=hidden;rounded=0;fontSize=18;" parent="1" vertex="1">
          <mxGeometry x="50" y="130" width="740" height="660" as="geometry" />
        </mxCell>
        <mxCell id="TcWmYvAn-RjA2z700y7h-7" value="&lt;font style=&quot;font-size: 36px;&quot;&gt;&lt;b&gt;Категорії обє&#39;ктів&lt;/b&gt;&lt;/font&gt;" style="text;html=1;strokeColor=none;fillColor=none;align=center;verticalAlign=middle;whiteSpace=wrap;rounded=0;" parent="1" vertex="1">
          <mxGeometry x="1431" width="339" height="90" as="geometry" />
        </mxCell>
        <mxCell id="TcWmYvAn-RjA2z700y7h-11" value="&lt;span style=&quot;font-size: 36px;&quot;&gt;&lt;b&gt;Об&#39;єкти з взаємодією&amp;nbsp;&lt;/b&gt;&lt;/span&gt;" style="text;html=1;strokeColor=none;fillColor=none;align=center;verticalAlign=middle;whiteSpace=wrap;rounded=0;" parent="1" vertex="1">
          <mxGeometry x="1470" y="120" width="280" height="60" as="geometry" />
        </mxCell>
        <mxCell id="TcWmYvAn-RjA2z700y7h-13" value="&lt;span style=&quot;font-size: 36px;&quot;&gt;&lt;b&gt;Пастки&lt;/b&gt;&lt;/span&gt;" style="text;html=1;strokeColor=none;fillColor=none;align=center;verticalAlign=middle;whiteSpace=wrap;rounded=0;" parent="1" vertex="1">
          <mxGeometry x="1444" y="525" width="280" height="60" as="geometry" />
        </mxCell>
        <mxCell id="TcWmYvAn-RjA2z700y7h-14" value="&lt;span style=&quot;font-size: 36px;&quot;&gt;&lt;b&gt;Декорації&lt;/b&gt;&lt;/span&gt;" style="text;html=1;strokeColor=none;fillColor=none;align=center;verticalAlign=middle;whiteSpace=wrap;rounded=0;" parent="1" vertex="1">
          <mxGeometry x="880" y="440" width="280" height="60" as="geometry" />
        </mxCell>
        <mxCell id="TcWmYvAn-RjA2z700y7h-15" style="edgeStyle=orthogonalEdgeStyle;rounded=0;orthogonalLoop=1;jettySize=auto;html=1;exitX=0.5;exitY=1;exitDx=0;exitDy=0;fontSize=21;" parent="1" source="TcWmYvAn-RjA2z700y7h-14" target="TcWmYvAn-RjA2z700y7h-14" edge="1">
          <mxGeometry relative="1" as="geometry" />
        </mxCell>
        <mxCell id="TcWmYvAn-RjA2z700y7h-23" value="Монети, шестірня і тд." style="ellipse;shape=cloud;whiteSpace=wrap;html=1;fontSize=20;" parent="1" vertex="1">
          <mxGeometry x="1900" y="240" width="260" height="180" as="geometry" />
        </mxCell>
        <mxCell id="TcWmYvAn-RjA2z700y7h-24" value="" style="endArrow=classic;html=1;rounded=0;fontSize=20;entryX=0.31;entryY=0.8;entryDx=0;entryDy=0;entryPerimeter=0;" parent="1" source="TcWmYvAn-RjA2z700y7h-36" target="TcWmYvAn-RjA2z700y7h-23" edge="1">
          <mxGeometry width="50" height="50" relative="1" as="geometry">
            <mxPoint x="1970.0013207547172" y="580" as="sourcePoint" />
            <mxPoint x="1927.19" y="610" as="targetPoint" />
          </mxGeometry>
        </mxCell>
        <mxCell id="TcWmYvAn-RjA2z700y7h-27" value="" style="endArrow=classic;html=1;rounded=0;fontSize=20;" parent="1" source="TcWmYvAn-RjA2z700y7h-14" target="TcWmYvAn-RjA2z700y7h-39" edge="1">
          <mxGeometry width="50" height="50" relative="1" as="geometry">
            <mxPoint x="1433" y="440" as="sourcePoint" />
            <mxPoint x="1133.75" y="600" as="targetPoint" />
          </mxGeometry>
        </mxCell>
        <mxCell id="TcWmYvAn-RjA2z700y7h-28" value="" style="endArrow=classic;html=1;rounded=0;fontSize=21;" parent="1" source="TcWmYvAn-RjA2z700y7h-29" edge="1">
          <mxGeometry width="50" height="50" relative="1" as="geometry">
            <mxPoint x="1403" y="380" as="sourcePoint" />
            <mxPoint x="1543.9024390243903" y="525" as="targetPoint" />
          </mxGeometry>
        </mxCell>
        <mxCell id="TcWmYvAn-RjA2z700y7h-29" value="&lt;b&gt;&lt;font style=&quot;font-size: 36px;&quot;&gt;Персонажи&lt;/font&gt;&lt;span style=&quot;color: rgba(0, 0, 0, 0); font-family: monospace; font-size: 0px; text-align: start;&quot;&gt;%3CmxGraphModel%3E%3Croot%3E%3CmxCell%20id%3D%220%22%2F%3E%3CmxCell%20id%3D%221%22%20parent%3D%220%22%2F%3E%3CmxCell%20id%3D%222%22%20value%3D%22%26lt%3Bfont%20style%3D%26quot%3Bfont-size%3A%2036px%3B%26quot%3B%26gt%3B%D0%9A%D0%B0%D1%82%D0%B5%D0%B3%D0%BE%D1%80%D1%96%D1%97%20%D0%BE%D0%B1%D1%94&#39;%D0%BA%D1%82%D1%96%D0%B2%26lt%3B%2Ffont%26gt%3B%22%20style%3D%22text%3Bhtml%3D1%3BstrokeColor%3Dnone%3BfillColor%3Dnone%3Balign%3Dcenter%3BverticalAlign%3Dmiddle%3BwhiteSpace%3Dwrap%3Brounded%3D0%3B%22%20vertex%3D%221%22%20parent%3D%221%22%3E%3CmxGeometry%20x%3D%221088%22%20width%3D%22306%22%20height%3D%2290%22%20as%3D%22geometry%22%2F%3E%3C%2FmxCell%3E%3C%2Froot%3E%3C%2FmxGraphModel%3E&lt;/span&gt;&lt;/b&gt;" style="text;html=1;strokeColor=none;fillColor=none;align=center;verticalAlign=middle;whiteSpace=wrap;rounded=0;" parent="1" vertex="1">
          <mxGeometry x="1170" y="320" width="280" height="60" as="geometry" />
        </mxCell>
        <mxCell id="TcWmYvAn-RjA2z700y7h-30" value="&lt;font style=&quot;font-size: 20px;&quot;&gt;Персонажи можуть тикати на речаги і тд.&lt;/font&gt;&lt;span style=&quot;color: rgba(0, 0, 0, 0); font-family: monospace; font-size: 0px; text-align: start;&quot;&gt;%3CmxGraphModel%3E%3Croot%3E%3CmxCell%20id%3D%220%22%2F%3E%3CmxCell%20id%3D%221%22%20parent%3D%220%22%2F%3E%3CmxCell%20id%3D%222%22%20value%3D%22%26lt%3Bfont%20style%3D%26quot%3Bfont-size%3A%2036px%3B%26quot%3B%26gt%3B%D0%9A%D0%B0%D1%82%D0%B5%D0%B3%D0%BE%D1%80%D1%96%D1%97%20%D0%BE%D0%B1%D1%94&#39;%D0%BA%D1%82%D1%96%D0%B2%26lt%3B%2Ffont%26gt%3B%22%20style%3D%22text%3Bhtml%3D1%3BstrokeColor%3Dnone%3BfillColor%3Dnone%3Balign%3Dcenter%3BverticalAlign%3Dmiddle%3BwhiteSpace%3Dwrap%3Brounded%3D0%3B%22%20vertex%3D%221%22%20parent%3D%221%22%3E%3CmxGeometry%20x%3D%221088%22%20width%3D%22306%22%20height%3D%2290%22%20as%3D%22geometry%22%2F%3E%3C%2FmxCell%3E%3C%2Froot%3E%3C%2FmxGraphModel%3E&lt;/span&gt;" style="text;html=1;strokeColor=none;fillColor=none;align=center;verticalAlign=middle;whiteSpace=wrap;rounded=0;" parent="1" vertex="1">
          <mxGeometry x="1183" y="130" width="280" height="60" as="geometry" />
        </mxCell>
        <mxCell id="TcWmYvAn-RjA2z700y7h-31" value="" style="endArrow=classic;html=1;rounded=0;fontSize=20;" parent="1" target="TcWmYvAn-RjA2z700y7h-30" edge="1">
          <mxGeometry width="50" height="50" relative="1" as="geometry">
            <mxPoint x="1443" y="250" as="sourcePoint" />
            <mxPoint x="1553" y="290" as="targetPoint" />
            <Array as="points" />
          </mxGeometry>
        </mxCell>
        <mxCell id="TcWmYvAn-RjA2z700y7h-32" value="" style="endArrow=classic;html=1;rounded=0;fontSize=20;entryX=0.393;entryY=1.061;entryDx=0;entryDy=0;entryPerimeter=0;" parent="1" source="TcWmYvAn-RjA2z700y7h-29" target="TcWmYvAn-RjA2z700y7h-11" edge="1">
          <mxGeometry width="50" height="50" relative="1" as="geometry">
            <mxPoint x="1403" y="380" as="sourcePoint" />
            <mxPoint x="1544.8571428571427" y="170" as="targetPoint" />
          </mxGeometry>
        </mxCell>
        <mxCell id="TcWmYvAn-RjA2z700y7h-34" value="Місяць, сопутники, жителі, тварини.&amp;nbsp;" style="ellipse;shape=cloud;whiteSpace=wrap;html=1;fontSize=20;" parent="1" vertex="1">
          <mxGeometry x="880" y="130" width="240" height="150" as="geometry" />
        </mxCell>
        <mxCell id="TcWmYvAn-RjA2z700y7h-35" value="" style="endArrow=classic;html=1;rounded=0;fontSize=20;" parent="1" source="TcWmYvAn-RjA2z700y7h-29" target="TcWmYvAn-RjA2z700y7h-34" edge="1">
          <mxGeometry width="50" height="50" relative="1" as="geometry">
            <mxPoint x="940.0013207547172" y="350" as="sourcePoint" />
            <mxPoint x="897.19" y="380" as="targetPoint" />
          </mxGeometry>
        </mxCell>
        <mxCell id="TcWmYvAn-RjA2z700y7h-36" value="&lt;font size=&quot;1&quot; style=&quot;&quot;&gt;&lt;b style=&quot;font-size: 26px;&quot;&gt;Собираємі предмети&lt;/b&gt;&lt;/font&gt;" style="text;html=1;align=center;verticalAlign=middle;resizable=0;points=[];autosize=1;strokeColor=none;fillColor=none;fontSize=20;" parent="1" vertex="1">
          <mxGeometry x="1625" y="230" width="290" height="40" as="geometry" />
        </mxCell>
        <mxCell id="TcWmYvAn-RjA2z700y7h-37" value="" style="endArrow=classic;html=1;rounded=0;fontSize=22;" parent="1" source="TcWmYvAn-RjA2z700y7h-29" target="TcWmYvAn-RjA2z700y7h-14" edge="1">
          <mxGeometry width="50" height="50" relative="1" as="geometry">
            <mxPoint x="1090" y="440" as="sourcePoint" />
            <mxPoint x="1140" y="390" as="targetPoint" />
          </mxGeometry>
        </mxCell>
        <mxCell id="TcWmYvAn-RjA2z700y7h-39" value="&lt;font style=&quot;font-size: 20px;&quot;&gt;Персонажи не можуть проходити наскрізь декорацій&lt;/font&gt;&lt;span style=&quot;color: rgba(0, 0, 0, 0); font-family: monospace; font-size: 0px; text-align: start;&quot;&gt;%3CmxGraphModel%3E%3Croot%3E%3CmxCell%20id%3D%220%22%2F%3E%3CmxCell%20id%3D%221%22%20parent%3D%220%22%2F%3E%3CmxCell%20id%3D%222%22%20value%3D%22%26lt%3Bfont%20style%3D%26quot%3Bfont-size%3A%2036px%3B%26quot%3B%26gt%3B%D0%9A%D0%B0%D1%82%D0%B5%D0%B3%D0%BE%D1%80%D1%96%D1%97%20%D0%BE%D0%B1%D1%94&#39;%D0%BA%D1%82%D1%96%D0%B2%26lt%3B%2Ffont%26gt%3B%22%20style%3D%22text%3Bhtml%3D1%3BstrokeColor%3Dnone%3BfillColor%3Dnone%3Balign%3Dcenter%3BverticalAlign%3Dmiddle%3BwhiteSpace%3Dwrap%3Brounded%3D0%3B%22%20vertex%3D%221%22%20parent%3D%221%22%3E%3CmxGeometry%20x%3D%221088%22%20width%3D%22306%22%20height%3D%2290%22%20as%3D%22geometry%22%2F%3E%3C%2FmxCell%3E%3C%2Froot%3E%3C%2FmxGraphModel%3E&lt;/span&gt;" style="ellipse;shape=cloud;whiteSpace=wrap;html=1;fontSize=22;" parent="1" vertex="1">
          <mxGeometry x="1070" y="550" width="310" height="190" as="geometry" />
        </mxCell>
        <mxCell id="TcWmYvAn-RjA2z700y7h-40" value="" style="endArrow=classic;html=1;rounded=0;fontSize=22;entryX=1;entryY=0.5;entryDx=0;entryDy=0;" parent="1" source="TcWmYvAn-RjA2z700y7h-36" target="TcWmYvAn-RjA2z700y7h-29" edge="1">
          <mxGeometry width="50" height="50" relative="1" as="geometry">
            <mxPoint x="1570" y="470" as="sourcePoint" />
            <mxPoint x="1620" y="420" as="targetPoint" />
          </mxGeometry>
        </mxCell>
        <mxCell id="TcWmYvAn-RjA2z700y7h-41" value="&lt;font style=&quot;font-size: 20px;&quot;&gt;Персонажи можуть підбирати монети і тд.&lt;/font&gt;&lt;span style=&quot;color: rgba(0, 0, 0, 0); font-family: monospace; font-size: 0px; text-align: start;&quot;&gt;%3CmxGraphModel%3E%3Croot%3E%3CmxCell%20id%3D%220%22%2F%3E%3CmxCell%20id%3D%221%22%20parent%3D%220%22%2F%3E%3CmxCell%20id%3D%222%22%20value%3D%22%26lt%3Bfont%20style%3D%26quot%3Bfont-size%3A%2036px%3B%26quot%3B%26gt%3B%D0%9A%D0%B0%D1%82%D0%B5%D0%B3%D0%BE%D1%80%D1%96%D1%97%20%D0%BE%D0%B1%D1%94&#39;%D0%BA%D1%82%D1%96%D0%B2%26lt%3B%2Ffont%26gt%3B%22%20style%3D%22text%3Bhtml%3D1%3BstrokeColor%3Dnone%3BfillColor%3Dnone%3Balign%3Dcenter%3BverticalAlign%3Dmiddle%3BwhiteSpace%3Dwrap%3Brounded%3D0%3B%22%20vertex%3D%221%22%20parent%3D%221%22%3E%3CmxGeometry%20x%3D%221088%22%20width%3D%22306%22%20height%3D%2290%22%20as%3D%22geometry%22%2F%3E%3C%2FmxCell%3E%3C%2Froot%3E%3C%2FmxGraphModel%3E&lt;/span&gt;" style="text;html=1;strokeColor=none;fillColor=none;align=center;verticalAlign=middle;whiteSpace=wrap;rounded=0;" parent="1" vertex="1">
          <mxGeometry x="1620" y="430" width="280" height="60" as="geometry" />
        </mxCell>
        <mxCell id="TcWmYvAn-RjA2z700y7h-42" value="" style="endArrow=classic;html=1;rounded=0;fontSize=22;" parent="1" source="TcWmYvAn-RjA2z700y7h-41" edge="1">
          <mxGeometry width="50" height="50" relative="1" as="geometry">
            <mxPoint x="1630" y="420" as="sourcePoint" />
            <mxPoint x="1590" y="310" as="targetPoint" />
          </mxGeometry>
        </mxCell>
      </root>
    </mxGraphModel>
  </diagram>
  <diagram id="nKI-zwVOlbmrzGaub-R7" name="Сторінка-2">
    <mxGraphModel dx="-1176" dy="1427" grid="1" gridSize="10" guides="1" tooltips="1" connect="1" arrows="1" fold="1" page="1" pageScale="1" pageWidth="827" pageHeight="1169" math="0" shadow="0">
      <root>
        <mxCell id="0" />
        <mxCell id="1" parent="0" />
        <mxCell id="9VWY1ZScntojEGS8SY2v-1" value="&lt;span style=&quot;font-size: 36px;&quot;&gt;&lt;b&gt;Системи&lt;/b&gt;&lt;/span&gt;" style="text;html=1;strokeColor=none;fillColor=none;align=center;verticalAlign=middle;whiteSpace=wrap;rounded=0;" parent="1" vertex="1">
          <mxGeometry x="2742" width="306" height="90" as="geometry" />
        </mxCell>
        <mxCell id="9VWY1ZScntojEGS8SY2v-2" value="&lt;span style=&quot;font-size: 36px;&quot;&gt;Персонаж&lt;/span&gt;" style="text;html=1;strokeColor=none;fillColor=none;align=center;verticalAlign=middle;whiteSpace=wrap;rounded=0;" parent="1" vertex="1">
          <mxGeometry x="2500" y="360" width="306" height="90" as="geometry" />
        </mxCell>
        <mxCell id="9VWY1ZScntojEGS8SY2v-4" value="&lt;span style=&quot;font-size: 36px;&quot;&gt;Система Пересування&amp;nbsp;&lt;/span&gt;" style="text;html=1;strokeColor=none;fillColor=none;align=center;verticalAlign=middle;whiteSpace=wrap;rounded=0;" parent="1" vertex="1">
          <mxGeometry x="2840" y="320" width="306" height="90" as="geometry" />
        </mxCell>
        <mxCell id="9VWY1ZScntojEGS8SY2v-5" value="&lt;span style=&quot;font-size: 36px;&quot;&gt;Система Анімація&lt;/span&gt;" style="text;html=1;strokeColor=none;fillColor=none;align=center;verticalAlign=middle;whiteSpace=wrap;rounded=0;" parent="1" vertex="1">
          <mxGeometry x="2840" y="230" width="306" height="90" as="geometry" />
        </mxCell>
        <mxCell id="9VWY1ZScntojEGS8SY2v-6" value="&lt;span style=&quot;font-size: 36px;&quot;&gt;Система звуки&amp;nbsp;&lt;/span&gt;" style="text;html=1;strokeColor=none;fillColor=none;align=center;verticalAlign=middle;whiteSpace=wrap;rounded=0;" parent="1" vertex="1">
          <mxGeometry x="2840" y="420" width="306" height="90" as="geometry" />
        </mxCell>
        <mxCell id="9VWY1ZScntojEGS8SY2v-7" value="&lt;span style=&quot;font-size: 36px;&quot;&gt;Система Життя(hp)&lt;/span&gt;" style="text;html=1;strokeColor=none;fillColor=none;align=center;verticalAlign=middle;whiteSpace=wrap;rounded=0;" parent="1" vertex="1">
          <mxGeometry x="2840" y="520" width="306" height="90" as="geometry" />
        </mxCell>
        <mxCell id="9VWY1ZScntojEGS8SY2v-8" value="&lt;span style=&quot;font-size: 36px;&quot;&gt;Система діалогів&lt;/span&gt;" style="text;html=1;strokeColor=none;fillColor=none;align=center;verticalAlign=middle;whiteSpace=wrap;rounded=0;" parent="1" vertex="1">
          <mxGeometry x="2850" y="630" width="306" height="90" as="geometry" />
        </mxCell>
        <mxCell id="9VWY1ZScntojEGS8SY2v-9" value="" style="endArrow=classic;html=1;rounded=0;fontSize=26;entryX=0;entryY=0.5;entryDx=0;entryDy=0;exitX=0.75;exitY=0;exitDx=0;exitDy=0;" parent="1" source="9VWY1ZScntojEGS8SY2v-2" target="9VWY1ZScntojEGS8SY2v-5" edge="1">
          <mxGeometry width="50" height="50" relative="1" as="geometry">
            <mxPoint x="2710" y="340" as="sourcePoint" />
            <mxPoint x="2760" y="290" as="targetPoint" />
          </mxGeometry>
        </mxCell>
        <mxCell id="9VWY1ZScntojEGS8SY2v-10" value="" style="endArrow=classic;html=1;rounded=0;fontSize=26;entryX=0;entryY=0.5;entryDx=0;entryDy=0;exitX=0.75;exitY=0;exitDx=0;exitDy=0;" parent="1" source="9VWY1ZScntojEGS8SY2v-2" target="9VWY1ZScntojEGS8SY2v-4" edge="1">
          <mxGeometry width="50" height="50" relative="1" as="geometry">
            <mxPoint x="2739.5" y="370" as="sourcePoint" />
            <mxPoint x="2850" y="285" as="targetPoint" />
            <Array as="points" />
          </mxGeometry>
        </mxCell>
        <mxCell id="9VWY1ZScntojEGS8SY2v-11" value="" style="endArrow=classic;html=1;rounded=0;fontSize=26;entryX=0;entryY=0.5;entryDx=0;entryDy=0;exitX=0.75;exitY=1;exitDx=0;exitDy=0;" parent="1" source="9VWY1ZScntojEGS8SY2v-2" target="9VWY1ZScntojEGS8SY2v-6" edge="1">
          <mxGeometry width="50" height="50" relative="1" as="geometry">
            <mxPoint x="2739.5" y="370" as="sourcePoint" />
            <mxPoint x="2850" y="375" as="targetPoint" />
            <Array as="points" />
          </mxGeometry>
        </mxCell>
        <mxCell id="9VWY1ZScntojEGS8SY2v-12" value="" style="endArrow=classic;html=1;rounded=0;fontSize=26;entryX=0;entryY=0.5;entryDx=0;entryDy=0;exitX=0.75;exitY=1;exitDx=0;exitDy=0;" parent="1" source="9VWY1ZScntojEGS8SY2v-2" target="9VWY1ZScntojEGS8SY2v-7" edge="1">
          <mxGeometry width="50" height="50" relative="1" as="geometry">
            <mxPoint x="2739.5" y="460" as="sourcePoint" />
            <mxPoint x="2850" y="475" as="targetPoint" />
            <Array as="points" />
          </mxGeometry>
        </mxCell>
        <mxCell id="9VWY1ZScntojEGS8SY2v-13" value="" style="endArrow=classic;html=1;rounded=0;fontSize=26;entryX=0;entryY=0.5;entryDx=0;entryDy=0;exitX=0.75;exitY=1;exitDx=0;exitDy=0;" parent="1" source="9VWY1ZScntojEGS8SY2v-2" target="9VWY1ZScntojEGS8SY2v-8" edge="1">
          <mxGeometry width="50" height="50" relative="1" as="geometry">
            <mxPoint x="2739.5" y="460" as="sourcePoint" />
            <mxPoint x="2850" y="575" as="targetPoint" />
            <Array as="points" />
          </mxGeometry>
        </mxCell>
        <mxCell id="9VWY1ZScntojEGS8SY2v-15" value="&lt;span style=&quot;font-size: 36px;&quot;&gt;Контролер&lt;/span&gt;" style="text;html=1;strokeColor=none;fillColor=none;align=center;verticalAlign=middle;whiteSpace=wrap;rounded=0;" parent="1" vertex="1">
          <mxGeometry x="2490" y="660" width="306" height="90" as="geometry" />
        </mxCell>
        <mxCell id="9VWY1ZScntojEGS8SY2v-16" value="" style="endArrow=classic;html=1;rounded=0;fontSize=26;entryX=0.5;entryY=1;entryDx=0;entryDy=0;exitX=0.5;exitY=0;exitDx=0;exitDy=0;" parent="1" source="9VWY1ZScntojEGS8SY2v-15" target="9VWY1ZScntojEGS8SY2v-2" edge="1">
          <mxGeometry width="50" height="50" relative="1" as="geometry">
            <mxPoint x="2739.5" y="370" as="sourcePoint" />
            <mxPoint x="2850" y="285" as="targetPoint" />
          </mxGeometry>
        </mxCell>
        <mxCell id="Ur0mYpTpY8jCyEDqKD7M-2" value="Трігер" style="rounded=0;whiteSpace=wrap;html=1;fontSize=26;" parent="1" vertex="1">
          <mxGeometry x="2883" y="840" width="220" height="60" as="geometry" />
        </mxCell>
        <mxCell id="Ur0mYpTpY8jCyEDqKD7M-3" value="" style="endArrow=classic;html=1;rounded=0;fontSize=26;entryX=1;entryY=0.5;entryDx=0;entryDy=0;exitX=0;exitY=0;exitDx=0;exitDy=0;" parent="1" source="Ur0mYpTpY8jCyEDqKD7M-2" target="Ur0mYpTpY8jCyEDqKD7M-4" edge="1">
          <mxGeometry width="50" height="50" relative="1" as="geometry">
            <mxPoint x="2690" y="980" as="sourcePoint" />
            <mxPoint x="2620" y="950" as="targetPoint" />
          </mxGeometry>
        </mxCell>
        <mxCell id="Ur0mYpTpY8jCyEDqKD7M-4" value="Кнопка" style="rounded=0;whiteSpace=wrap;html=1;fontSize=26;" parent="1" vertex="1">
          <mxGeometry x="2560" y="820" width="220" height="60" as="geometry" />
        </mxCell>
        <mxCell id="wNtzweeDsZfkNeLoDgu6-1" value="перевірка&amp;nbsp;" style="rounded=0;whiteSpace=wrap;html=1;fontSize=26;" parent="1" vertex="1">
          <mxGeometry x="2570" y="940" width="220" height="60" as="geometry" />
        </mxCell>
        <mxCell id="wNtzweeDsZfkNeLoDgu6-2" value="" style="endArrow=classic;html=1;rounded=0;fontSize=26;entryX=1;entryY=0.25;entryDx=0;entryDy=0;exitX=0;exitY=0.75;exitDx=0;exitDy=0;" parent="1" source="Ur0mYpTpY8jCyEDqKD7M-2" target="wNtzweeDsZfkNeLoDgu6-1" edge="1">
          <mxGeometry width="50" height="50" relative="1" as="geometry">
            <mxPoint x="2893" y="850" as="sourcePoint" />
            <mxPoint x="2790" y="860" as="targetPoint" />
          </mxGeometry>
        </mxCell>
      </root>
    </mxGraphModel>
  </diagram>
  <diagram id="ze67XmTuFUyFkG_S8vM3" name="Опис систем">
    <mxGraphModel dx="-58" dy="1744" grid="1" gridSize="10" guides="1" tooltips="1" connect="1" arrows="1" fold="1" page="1" pageScale="1" pageWidth="827" pageHeight="1169" math="0" shadow="0">
      <root>
        <mxCell id="0" />
        <mxCell id="1" parent="0" />
        <mxCell id="MFlIII7-xDSO1Zs0_eh2-1" value="&lt;span style=&quot;font-size: 36px;&quot;&gt;Персонаж&lt;/span&gt;" style="text;html=1;strokeColor=none;fillColor=none;align=center;verticalAlign=middle;whiteSpace=wrap;rounded=0;" parent="1" vertex="1">
          <mxGeometry x="2742" width="306" height="90" as="geometry" />
        </mxCell>
        <mxCell id="DdcLkcS8PyzYOzmbPV-h-1" value="&lt;font style=&quot;font-size: 20px;&quot;&gt;Посилання:&lt;/font&gt;" style="text;html=1;strokeColor=none;fillColor=none;align=center;verticalAlign=middle;whiteSpace=wrap;rounded=0;" parent="1" vertex="1">
          <mxGeometry x="2500" y="120" width="306" height="90" as="geometry" />
        </mxCell>
        <mxCell id="DdcLkcS8PyzYOzmbPV-h-2" value="&lt;font style=&quot;font-size: 20px;&quot;&gt;Система діалогів&lt;/font&gt;" style="text;html=1;strokeColor=none;fillColor=none;align=center;verticalAlign=middle;whiteSpace=wrap;rounded=0;" parent="1" vertex="1">
          <mxGeometry x="2500" y="180" width="306" height="90" as="geometry" />
        </mxCell>
        <mxCell id="DdcLkcS8PyzYOzmbPV-h-3" value="&lt;font style=&quot;font-size: 20px;&quot;&gt;Система звуків&lt;/font&gt;" style="text;html=1;strokeColor=none;fillColor=none;align=center;verticalAlign=middle;whiteSpace=wrap;rounded=0;" parent="1" vertex="1">
          <mxGeometry x="2500" y="250" width="306" height="90" as="geometry" />
        </mxCell>
        <mxCell id="DdcLkcS8PyzYOzmbPV-h-4" value="&lt;font style=&quot;font-size: 20px;&quot;&gt;Система анімацій&lt;/font&gt;" style="text;html=1;strokeColor=none;fillColor=none;align=center;verticalAlign=middle;whiteSpace=wrap;rounded=0;" parent="1" vertex="1">
          <mxGeometry x="2500" y="330" width="306" height="90" as="geometry" />
        </mxCell>
        <mxCell id="DdcLkcS8PyzYOzmbPV-h-5" value="&lt;font style=&quot;font-size: 20px;&quot;&gt;Система пересування&lt;/font&gt;" style="text;html=1;strokeColor=none;fillColor=none;align=center;verticalAlign=middle;whiteSpace=wrap;rounded=0;" parent="1" vertex="1">
          <mxGeometry x="2500" y="410" width="306" height="90" as="geometry" />
        </mxCell>
        <mxCell id="DdcLkcS8PyzYOzmbPV-h-6" value="&lt;font style=&quot;font-size: 20px;&quot;&gt;Система статусів&lt;/font&gt;" style="text;html=1;strokeColor=none;fillColor=none;align=center;verticalAlign=middle;whiteSpace=wrap;rounded=0;" parent="1" vertex="1">
          <mxGeometry x="2500" y="480" width="306" height="90" as="geometry" />
        </mxCell>
        <mxCell id="DdcLkcS8PyzYOzmbPV-h-7" value="&lt;font style=&quot;font-size: 20px;&quot;&gt;Система перевірки землі&lt;/font&gt;" style="text;html=1;strokeColor=none;fillColor=none;align=center;verticalAlign=middle;whiteSpace=wrap;rounded=0;" parent="1" vertex="1">
          <mxGeometry x="2500" y="540" width="306" height="90" as="geometry" />
        </mxCell>
        <mxCell id="DdcLkcS8PyzYOzmbPV-h-8" value="&lt;span style=&quot;font-size: 36px;&quot;&gt;Функціонал&lt;/span&gt;" style="text;html=1;strokeColor=none;fillColor=none;align=center;verticalAlign=middle;whiteSpace=wrap;rounded=0;" parent="1" vertex="1">
          <mxGeometry x="2742" y="670" width="306" height="90" as="geometry" />
        </mxCell>
        <mxCell id="DdcLkcS8PyzYOzmbPV-h-10" value="&lt;span style=&quot;font-size: 36px;&quot;&gt;Контроллер&lt;/span&gt;" style="text;html=1;strokeColor=none;fillColor=none;align=center;verticalAlign=middle;whiteSpace=wrap;rounded=0;" parent="1" vertex="1">
          <mxGeometry x="1915" width="306" height="90" as="geometry" />
        </mxCell>
        <mxCell id="DdcLkcS8PyzYOzmbPV-h-11" value="&lt;font style=&quot;font-size: 20px;&quot;&gt;Система персонаж&lt;/font&gt;" style="text;html=1;strokeColor=none;fillColor=none;align=center;verticalAlign=middle;whiteSpace=wrap;rounded=0;" parent="1" vertex="1">
          <mxGeometry x="1670" y="180" width="306" height="90" as="geometry" />
        </mxCell>
        <mxCell id="DdcLkcS8PyzYOzmbPV-h-13" value="&lt;font style=&quot;font-size: 20px;&quot;&gt;Посилання:&lt;/font&gt;" style="text;html=1;strokeColor=none;fillColor=none;align=center;verticalAlign=middle;whiteSpace=wrap;rounded=0;" parent="1" vertex="1">
          <mxGeometry x="1670" y="120" width="306" height="90" as="geometry" />
        </mxCell>
        <mxCell id="DdcLkcS8PyzYOzmbPV-h-14" value="&lt;span style=&quot;font-size: 36px;&quot;&gt;АІ Контроллер&lt;/span&gt;" style="text;html=1;strokeColor=none;fillColor=none;align=center;verticalAlign=middle;whiteSpace=wrap;rounded=0;" parent="1" vertex="1">
          <mxGeometry x="1915" y="340" width="306" height="90" as="geometry" />
        </mxCell>
        <mxCell id="DdcLkcS8PyzYOzmbPV-h-15" value="&lt;span style=&quot;font-size: 36px;&quot;&gt;Player Контроллер&lt;/span&gt;" style="text;html=1;strokeColor=none;fillColor=none;align=center;verticalAlign=middle;whiteSpace=wrap;rounded=0;" parent="1" vertex="1">
          <mxGeometry x="1908" y="710" width="320" height="90" as="geometry" />
        </mxCell>
        <mxCell id="DdcLkcS8PyzYOzmbPV-h-16" value="&lt;font style=&quot;font-size: 20px;&quot;&gt;Система зчитування сигналів з ігрових пристроїв&lt;/font&gt;" style="text;html=1;strokeColor=none;fillColor=none;align=center;verticalAlign=middle;whiteSpace=wrap;rounded=0;" parent="1" vertex="1">
          <mxGeometry x="1670" y="910" width="306" height="90" as="geometry" />
        </mxCell>
        <mxCell id="DdcLkcS8PyzYOzmbPV-h-17" value="&lt;font style=&quot;font-size: 20px;&quot;&gt;Посилання:&lt;/font&gt;" style="text;html=1;strokeColor=none;fillColor=none;align=center;verticalAlign=middle;whiteSpace=wrap;rounded=0;" parent="1" vertex="1">
          <mxGeometry x="1670" y="830" width="306" height="90" as="geometry" />
        </mxCell>
        <mxCell id="DdcLkcS8PyzYOzmbPV-h-18" value="&lt;font style=&quot;font-size: 20px;&quot;&gt;Система персонаж&lt;/font&gt;" style="text;html=1;strokeColor=none;fillColor=none;align=center;verticalAlign=middle;whiteSpace=wrap;rounded=0;" parent="1" vertex="1">
          <mxGeometry x="1670" y="980" width="306" height="90" as="geometry" />
        </mxCell>
        <mxCell id="DdcLkcS8PyzYOzmbPV-h-20" value="Функція update" style="rounded=0;whiteSpace=wrap;html=1;fontSize=20;" parent="1" vertex="1">
          <mxGeometry x="2574.5" y="760" width="157" height="60" as="geometry" />
        </mxCell>
        <mxCell id="DdcLkcS8PyzYOzmbPV-h-25" value="" style="edgeStyle=orthogonalEdgeStyle;rounded=0;orthogonalLoop=1;jettySize=auto;html=1;fontSize=20;" parent="1" source="DdcLkcS8PyzYOzmbPV-h-21" target="DdcLkcS8PyzYOzmbPV-h-23" edge="1">
          <mxGeometry relative="1" as="geometry" />
        </mxCell>
        <mxCell id="DdcLkcS8PyzYOzmbPV-h-21" value="0. Зчитуєм сигнал з ігрових пристроїв." style="rounded=0;whiteSpace=wrap;html=1;fontSize=20;" parent="1" vertex="1">
          <mxGeometry x="2560.25" y="860" width="185.5" height="60" as="geometry" />
        </mxCell>
        <mxCell id="DdcLkcS8PyzYOzmbPV-h-22" value="" style="endArrow=classic;html=1;rounded=0;fontSize=20;entryX=0.5;entryY=0;entryDx=0;entryDy=0;exitX=0.5;exitY=1;exitDx=0;exitDy=0;" parent="1" source="DdcLkcS8PyzYOzmbPV-h-20" target="DdcLkcS8PyzYOzmbPV-h-21" edge="1">
          <mxGeometry width="50" height="50" relative="1" as="geometry">
            <mxPoint x="2620" y="900" as="sourcePoint" />
            <mxPoint x="2670" y="850" as="targetPoint" />
          </mxGeometry>
        </mxCell>
        <mxCell id="DdcLkcS8PyzYOzmbPV-h-23" value="1. Передаєм сигнал систему руху." style="rounded=0;whiteSpace=wrap;html=1;fontSize=20;" parent="1" vertex="1">
          <mxGeometry x="2560.25" y="970" width="185.5" height="80" as="geometry" />
        </mxCell>
        <mxCell id="DdcLkcS8PyzYOzmbPV-h-24" value="" style="endArrow=classic;html=1;rounded=0;fontSize=20;entryX=0.5;entryY=0;entryDx=0;entryDy=0;exitX=0.5;exitY=1;exitDx=0;exitDy=0;" parent="1" source="DdcLkcS8PyzYOzmbPV-h-21" target="DdcLkcS8PyzYOzmbPV-h-23" edge="1">
          <mxGeometry width="50" height="50" relative="1" as="geometry">
            <mxPoint x="2653" y="950" as="sourcePoint" />
            <mxPoint x="2670" y="950" as="targetPoint" />
          </mxGeometry>
        </mxCell>
        <mxCell id="DdcLkcS8PyzYOzmbPV-h-26" value="2. Персонаж рухається." style="rounded=0;whiteSpace=wrap;html=1;fontSize=20;" parent="1" vertex="1">
          <mxGeometry x="2526" y="1080" width="254" height="80" as="geometry" />
        </mxCell>
        <mxCell id="DdcLkcS8PyzYOzmbPV-h-27" value="" style="endArrow=classic;html=1;rounded=0;fontSize=20;entryX=0.5;entryY=0;entryDx=0;entryDy=0;exitX=0.5;exitY=1;exitDx=0;exitDy=0;" parent="1" source="DdcLkcS8PyzYOzmbPV-h-23" target="DdcLkcS8PyzYOzmbPV-h-26" edge="1">
          <mxGeometry width="50" height="50" relative="1" as="geometry">
            <mxPoint x="2660" y="1080" as="sourcePoint" />
            <mxPoint x="2915.75" y="950" as="targetPoint" />
          </mxGeometry>
        </mxCell>
        <mxCell id="DdcLkcS8PyzYOzmbPV-h-29" value="&lt;span style=&quot;font-size: 36px;&quot;&gt;Персонаж&lt;/span&gt;" style="text;html=1;strokeColor=none;fillColor=none;align=center;verticalAlign=middle;whiteSpace=wrap;rounded=0;" parent="1" vertex="1">
          <mxGeometry x="3569" width="306" height="90" as="geometry" />
        </mxCell>
        <mxCell id="DdcLkcS8PyzYOzmbPV-h-30" value="&lt;font style=&quot;font-size: 20px;&quot;&gt;Посилання:&lt;/font&gt;" style="text;html=1;strokeColor=none;fillColor=none;align=center;verticalAlign=middle;whiteSpace=wrap;rounded=0;" parent="1" vertex="1">
          <mxGeometry x="3330" y="120" width="306" height="90" as="geometry" />
        </mxCell>
        <mxCell id="DdcLkcS8PyzYOzmbPV-h-31" value="&lt;span style=&quot;font-size: 20px;&quot;&gt;Швидкість пересування&lt;/span&gt;" style="text;html=1;strokeColor=none;fillColor=none;align=center;verticalAlign=middle;whiteSpace=wrap;rounded=0;" parent="1" vertex="1">
          <mxGeometry x="3330" y="180" width="306" height="90" as="geometry" />
        </mxCell>
        <mxCell id="DdcLkcS8PyzYOzmbPV-h-33" value="&lt;font style=&quot;font-size: 20px;&quot;&gt;Система камери&lt;/font&gt;" style="text;html=1;strokeColor=none;fillColor=none;align=center;verticalAlign=middle;whiteSpace=wrap;rounded=0;" parent="1" vertex="1">
          <mxGeometry x="2500" y="600" width="306" height="90" as="geometry" />
        </mxCell>
        <mxCell id="DdcLkcS8PyzYOzmbPV-h-34" value="&lt;span style=&quot;font-size: 20px;&quot;&gt;Силою прижка&lt;/span&gt;" style="text;html=1;strokeColor=none;fillColor=none;align=center;verticalAlign=middle;whiteSpace=wrap;rounded=0;" parent="1" vertex="1">
          <mxGeometry x="3330" y="250" width="306" height="90" as="geometry" />
        </mxCell>
        <mxCell id="knQ-I-dDBVJMICslQPGk-2" value="&lt;span style=&quot;font-size: 20px;&quot;&gt;Швидкість підбирання придметів&lt;/span&gt;" style="text;html=1;strokeColor=none;fillColor=none;align=center;verticalAlign=middle;whiteSpace=wrap;rounded=0;" vertex="1" parent="1">
          <mxGeometry x="3330" y="320" width="306" height="90" as="geometry" />
        </mxCell>
        <mxCell id="knQ-I-dDBVJMICslQPGk-3" value="&lt;font style=&quot;font-size: 20px;&quot;&gt;Посилання:&lt;/font&gt;" style="text;html=1;strokeColor=none;fillColor=none;align=center;verticalAlign=middle;whiteSpace=wrap;rounded=0;" vertex="1" parent="1">
          <mxGeometry x="1670" y="430" width="306" height="90" as="geometry" />
        </mxCell>
        <mxCell id="4HghBEFKxQXQywCMYmiV-1" value="&lt;font style=&quot;font-size: 20px;&quot;&gt;Система перевірки Здоров&#39;я(hp)&lt;/font&gt;" style="text;html=1;strokeColor=none;fillColor=none;align=center;verticalAlign=middle;whiteSpace=wrap;rounded=0;" vertex="1" parent="1">
          <mxGeometry x="2790" y="540" width="306" height="90" as="geometry" />
        </mxCell>
      </root>
    </mxGraphModel>
  </diagram>
</mxfile>
